<svg xmlns="http://www.w3.org/2000/svg" width="184.4" height="53.411" viewBox="0 0 184.4 53.411">
  <g id="Group_35" data-name="Group 35" transform="translate(21371.92 24210.705)">
    <path id="Path_1" data-name="Path 1" d="M-1356.461-894.887h-9.127v-23.88c.163-.007.3-.019.447-.019q11.531,0,23.062,0a7.576,7.576,0,0,0,3.038-.591,8.018,8.018,0,0,0,2.854-2.12,7.815,7.815,0,0,0,1.16-1.705,7.514,7.514,0,0,0,.739-2.589,7.691,7.691,0,0,0-.541-3.765,7.026,7.026,0,0,0-1.405-2.163,8.852,8.852,0,0,0-2.195-1.762,6.973,6.973,0,0,0-2.42-.8,8.28,8.28,0,0,0-1.073-.07q-4.242-.009-8.484,0c-.134,0-.268-.012-.424-.02l-5.059-9.287c.171-.01.291-.024.41-.024q3.6,0,7.2,0c2.226,0,4.451-.01,6.677,0a20.512,20.512,0,0,1,7.946,1.587,16.708,16.708,0,0,1,4.209,2.578,16,16,0,0,1,3.984,5,16.77,16.77,0,0,1,1.675,5.16,17.288,17.288,0,0,1,.22,3.278,17.554,17.554,0,0,1-1.368,6.311,16.256,16.256,0,0,1-2.446,4.053,16.291,16.291,0,0,1-4.431,3.739,18.5,18.5,0,0,1-5.691,2.094,18.587,18.587,0,0,1-3.206.379c-.835.018-1.67.047-2.5.048q-6.429.007-12.858,0h-.39C-1356.461-904.469-1356.461-899.864-1356.461-894.887Z" transform="translate(-19980.908 -23262.479)" fill="#14212b"/>
    <path id="Path_2" data-name="Path 2" d="M-1774.7-1021.36q5.933,11.865,11.834,23.665c-.253.085-9.465.114-10.023.041l-1.828-3.659c-5.646,11.125-11.12,22.274-16.775,33.3-.331.079-9.647.069-9.868,0C-1801.333-968.221-1774.994-1020.949-1774.7-1021.36Z" transform="translate(-19570.559 -23189.346)" fill="#ff4a17"/>
    <path id="Path_3" data-name="Path 3" d="M-1134.02-258.857h9.937l4.456,8.838c-.226.09-9.552.117-9.994.033Z" transform="translate(-20198.965 -23907.359)" fill="#ff4a17"/>
    <path id="Path_26" data-name="Path 26" d="M-892.946,206.68a10.275,10.275,0,0,1,.031,2c-.43.138-42.63.146-43.074.017v-1.986l.047-.043a.109.109,0,0,1,.036-.026.77.77,0,0,1,.176-.036q21.191,0,42.383,0a1.635,1.635,0,0,1,.225.014A1.164,1.164,0,0,1-892.946,206.68Z" transform="translate(-20358.195 -24374.236)" fill="#14212b"/>
    <path id="Path_10" data-name="Path 10" d="M-2226.18-.874c-.253-.738-.486-1.42-.728-2.128h-3.445c-.227.685-.456,1.38-.692,2.095h-2.49c1.291-3.695,2.568-7.343,3.847-11h2.232c1.26,3.638,2.521,7.28,3.808,10.993C-2224.521-.832-2225.324-.886-2226.18-.874Zm-1.373-4.4c-.355-1.176-.689-2.279-1.022-3.382l-.071,0-1.043,3.386Z" transform="translate(-19060.322 -24193.328)" fill="#14212b"/>
    <path id="Path_12" data-name="Path 12" d="M-1863.574-.862V-11.807h6.143v2.3c-.668.005-1.311.013-1.954.015s-1.291,0-1.972,0v1.966h3.72v2.2h-3.725v2.167h4.181V-.889A49,49,0,0,1-1863.574-.862Z" transform="translate(-19396.75 -24193.422)" fill="#14212b"/>
    <path id="Path_15" data-name="Path 15" d="M-1979.11-11.963c-.239-.211-.416-.4-.621-.541a1.674,1.674,0,0,0-1.582-.287.881.881,0,0,0-.649.787.877.877,0,0,0,.456.995c.6.285,1.216.532,1.819.809a3,3,0,0,1,1.776,1.885,3.747,3.747,0,0,1-1.361,4.187,3.823,3.823,0,0,1-2.872.489,4.319,4.319,0,0,1-2.635-1.545c.254-.313.5-.614.741-.914s.476-.577.742-.9c.116.127.2.227.292.317a2.415,2.415,0,0,0,1.8.827,1.027,1.027,0,0,0,1.061-.75,1.027,1.027,0,0,0-.483-1.284,10.008,10.008,0,0,0-1.1-.524c-.289-.13-.589-.234-.874-.373a2.907,2.907,0,0,1-1.679-2.269,3.835,3.835,0,0,1,.174-1.963,3.147,3.147,0,0,1,1.9-1.891,4.1,4.1,0,0,1,4.315.924c.061.063.11.138.193.245Z" transform="translate(-19286.529 -24190.361)" fill="#14212b"/>
    <path id="Path_16" data-name="Path 16" d="M-2097.611-5.112l1.492-1.807c.2.186.35.341.511.488a2.165,2.165,0,0,0,1.591.646,1.037,1.037,0,0,0,1.065-.747,1.088,1.088,0,0,0-.53-1.317c-.38-.212-.8-.351-1.193-.542a8.358,8.358,0,0,1-1.314-.695,2.994,2.994,0,0,1-1.157-2.713,3.34,3.34,0,0,1,.627-1.907,3.554,3.554,0,0,1,3.4-1.366,3.933,3.933,0,0,1,2.242.991c.123.106.23.23.378.379l-1.409,1.779-.148.074a1.344,1.344,0,0,0-.2-.35,1.847,1.847,0,0,0-1.772-.561.919.919,0,0,0-.761.792.917.917,0,0,0,.509,1.057c.547.253,1.108.476,1.66.719a3.209,3.209,0,0,1,1.588,1.291,3.651,3.651,0,0,1-.026,3.714,3.2,3.2,0,0,1-2.861,1.69,4.446,4.446,0,0,1-3.107-1.031A8.017,8.017,0,0,1-2097.611-5.112Z" transform="translate(-19183.928 -24190.43)" fill="#14212b"/>
    <path id="Path_17" data-name="Path 17" d="M-1753.646-1.228h-2.309c-.019-.219-.051-.421-.051-.624q-.006-3.712,0-7.424c0-.177-.014-.354-.025-.6h-2.487v-2.377c2.462,0,4.9,0,7.376,0V-9.9h-2.5Z" transform="translate(-19492.279 -24193.012)" fill="#14212b"/>
    <path id="Path_6" data-name="Path 6" d="M-501.452-1.279h-2.119c-.12-.358-.143-10.467-.025-10.989h2.532l3.5,6.825.073-.017v-6.8a15.226,15.226,0,0,1,2.163-.031V-1.355a8.1,8.1,0,0,1-2.553.041l-3.5-6.794-.074.015Z" transform="translate(-20692.35 -24175.369)" fill="#14212b"/>
    <path id="Path_7" data-name="Path 7" d="M-1340.282-9.323A6.5,6.5,0,0,1-1339-13.638a4.544,4.544,0,0,1,3.4-1.731,4.889,4.889,0,0,1,5.208,4.172,7.214,7.214,0,0,1-.339,4.264,4.713,4.713,0,0,1-3.7,3.108,4.731,4.731,0,0,1-5.1-2.532A6.359,6.359,0,0,1-1340.282-9.323Zm7.533-.262a5.544,5.544,0,0,0,0-.677,3.022,3.022,0,0,0-1.212-2.235,2.339,2.339,0,0,0-3.528,1.191,4.406,4.406,0,0,0,.078,3.56A2.27,2.27,0,0,0-1335.4-6.3a2.274,2.274,0,0,0,2.232-1.325A3.4,3.4,0,0,0-1332.749-9.585Z" transform="translate(-19931.578 -24172.586)" fill="#14212b"/>
    <path id="Path_8" data-name="Path 8" d="M-657.642-9.583a6.029,6.029,0,0,1,.882-3.471,4.6,4.6,0,0,1,4.43-2.267,4.444,4.444,0,0,1,3.932,2.5,6.841,6.841,0,0,1-.124,6.757,4.76,4.76,0,0,1-8.064.282A6.248,6.248,0,0,1-657.642-9.583Zm7.539-.049a3.588,3.588,0,0,0-.368-1.771,2.394,2.394,0,0,0-1.453-1.34,2.278,2.278,0,0,0-2.811,1.217,4.211,4.211,0,0,0,.127,4.156,2.271,2.271,0,0,0,3.863.119A3.751,3.751,0,0,0-650.1-9.631Z" transform="translate(-20552.336 -24172.629)" fill="#14212b"/>
    <path id="Path_9" data-name="Path 9" d="M-1450.167-1.3h-2.69l-1.957-4.278h-.656v4.245a13.653,13.653,0,0,1-2.243.047v-11a3.682,3.682,0,0,1,.427-.05c1.1,0,2.205-.025,3.307.006a3.379,3.379,0,0,1,2.362.882,3.347,3.347,0,0,1,.924,2.911,2.923,2.923,0,0,1-1.742,2.517c-.024.011-.037.045-.087.11Zm-5.308-6.331a5.736,5.736,0,0,0,1.731-.106,1.185,1.185,0,0,0,.783-1.28,1.043,1.043,0,0,0-1-1.032c-.208-.025-.418-.054-.627-.062-.293-.011-.586,0-.888,0Z" transform="translate(-19824.793 -24175.34)" fill="#14212b"/>
    <path id="Path_11" data-name="Path 11" d="M-1073.358-7.944v2.2h-3.736V-3.58h4.181v2.264a50.378,50.378,0,0,1-6.343.044c-.109-.335-.129-10.455,0-10.99,2.009-.024,4.035-.007,6.124-.012a14.779,14.779,0,0,1,.035,2.346c-.71.005-1.368.012-2.024.015s-1.289,0-1.966,0v1.969Z" transform="translate(-20168.861 -24175.406)" fill="#14212b"/>
    <path id="Path_13" data-name="Path 13" d="M-961.182-5.734a4.31,4.31,0,0,1-2.639,1.78,4.637,4.637,0,0,1-5.156-2.48,6.836,6.836,0,0,1,.093-6.679,4.69,4.69,0,0,1,7.027-1.356,6.867,6.867,0,0,1,.594.621l-1.531,1.84a1.757,1.757,0,0,1-.2-.182,2.236,2.236,0,0,0-3.583.2,3.8,3.8,0,0,0-.673,2.351,4.2,4.2,0,0,0,.347,1.717,2.358,2.358,0,0,0,2.389,1.511,2.007,2.007,0,0,0,1.226-.512c.18-.16.383-.294.617-.472Z" transform="translate(-20268.477 -24172.469)" fill="#14212b"/>
    <path id="Path_14" data-name="Path 14" d="M-1575.557-5.442c0,.756,0,1.431,0,2.107,0,.657-.009,1.314-.014,2.009h-2.274a3.807,3.807,0,0,1-.064-.485q-.005-5.025,0-10.049c0-.133.018-.266.031-.446a4.387,4.387,0,0,1,.448-.048c1.056,0,2.114-.031,3.168.011a5.7,5.7,0,0,1,1.5.284,2.525,2.525,0,0,1,1.558,1.426,4.1,4.1,0,0,1,.093,3.175,3.121,3.121,0,0,1-3.005,2.011C-1574.562-5.414-1575.015-5.442-1575.557-5.442Zm.027-4.731v2.512a4.411,4.411,0,0,0,1.607-.1,1.083,1.083,0,0,0,.724-1.217.936.936,0,0,0-.745-1.042A15.708,15.708,0,0,0-1575.53-10.173Z" transform="translate(-19715.492 -24175.322)" fill="#14212b"/>
    <path id="Path_18" data-name="Path 18" d="M-839.723-12.209v2.227c-.833.129-1.66,0-2.5.077a2.217,2.217,0,0,0-.03.257q0,3.913,0,7.826c0,.175-.034.349-.055.555h-2.245c-.018-.194-.049-.382-.05-.569q0-3.732,0-7.464v-.6l-2.522-.044V-12.2A68.561,68.561,0,0,1-839.723-12.209Z" transform="translate(-20380.027 -24175.381)" fill="#14212b"/>
    <path id="Path_19" data-name="Path 19" d="M-1195.311-1.226h-2.309c-.021-2.876,0-5.72-.014-8.64l-2.561-.036a15.445,15.445,0,0,1-.007-2.356h7.384V-9.9h-2.493Z" transform="translate(-20058.924 -24175.422)" fill="#14212b"/>
    <path id="Path_23" data-name="Path 23" d="M-724.867-11.842V-.859a14.465,14.465,0,0,1-2.26.022,3.914,3.914,0,0,1-.065-.5q-.005-5.019,0-10.038a4.114,4.114,0,0,1,.057-.469Z" transform="translate(-20489.092 -24175.799)" fill="#14212b"/>
    <path id="Path_20" data-name="Path 20" d="M-1349.231,176.029a4.007,4.007,0,0,1,1.044-2.993,3.249,3.249,0,0,1,5.017.518,4.758,4.758,0,0,1-.185,5.045,3.185,3.185,0,0,1-5.254-.252A4.07,4.07,0,0,1-1349.231,176.029Zm5-.047a2.3,2.3,0,0,0-.406-1.541,1.532,1.532,0,0,0-2.561.033,2.956,2.956,0,0,0,.01,2.972,1.518,1.518,0,0,0,2.6-.035A2.363,2.363,0,0,0-1344.227,175.982Z" transform="translate(-19870.67 -24341.785)" fill="#ff4a17"/>
    <path id="Path_21" data-name="Path 21" d="M-1631.29,173.116l-.948,1.277c-.113-.09-.2-.15-.271-.217a1.573,1.573,0,0,0-2.482.372,2.841,2.841,0,0,0-.042,2.853,1.727,1.727,0,0,0,2.314.611v-1.188l-1.093-.077v-1.343a9.176,9.176,0,0,1,2.547-.042c.075,1.268.023,2.552.032,3.8-1.79,1.178-4.738,1.061-5.594-1.779a4.665,4.665,0,0,1,.312-3.56,3.255,3.255,0,0,1,4.7-1.174A4.535,4.535,0,0,1-1631.29,173.116Z" transform="translate(-19608.949 -24341.797)" fill="#ff4a17"/>
    <path id="Path_22" data-name="Path 22" d="M-1481.555,179.08l1.544,3.036a10.091,10.091,0,0,1-1.786.026l-1.3-2.835-.425-.024v2.842h-1.445a68.749,68.749,0,0,1-.027-7.251c.011-.01.022-.029.033-.029a26.613,26.613,0,0,1,3.016.049,1.862,1.862,0,0,1,1.607,1.948,2.209,2.209,0,0,1-.471,1.607A6.287,6.287,0,0,1-1481.555,179.08Zm-1.952-2.772v1.613a7.435,7.435,0,0,0,1.1-.1c.407-.1.544-.377.511-.836a.633.633,0,0,0-.609-.665A8.059,8.059,0,0,0-1483.507,176.308Z" transform="translate(-19747.141 -24344.277)" fill="#ff4a17"/>
    <path id="Path_24" data-name="Path 24" d="M-1190.454,174.908h1.447c.016.208.04.384.041.56,0,1.283-.005,2.566.009,3.849a2.51,2.51,0,0,0,.133.8.974.974,0,0,0,.985.654,1,1,0,0,0,.935-.731,3.206,3.206,0,0,0,.109-.8c.011-1.253,0-2.505.007-3.758,0-.176.022-.352.035-.563h1.469a4.111,4.111,0,0,1,.047.435c0,1.434.026,2.868-.008,4.3a2.671,2.671,0,0,1-1.44,2.5,2.558,2.558,0,0,1-3.8-2.214c-.121-1.591-.025-3.2-.024-4.8A1.211,1.211,0,0,1-1190.454,174.908Z" transform="translate(-20014.979 -24344.354)" fill="#ff4a17"/>
    <path id="Path_25" data-name="Path 25" d="M-1043.712,174.513c.5,0,.931,0,1.367,0s.876-.009,1.312.013a1.947,1.947,0,0,1,1.932,1.595,2.705,2.705,0,0,1-.086,1.6,2.016,2.016,0,0,1-1.728,1.342c-.4.06-.8.083-1.276.13v2.641h-1.522Zm1.546,3.1c.25,0,.442,0,.635,0a1.629,1.629,0,0,0,.313-.026.765.765,0,0,0,.628-.814.631.631,0,0,0-.589-.721,7.487,7.487,0,0,0-.987-.061Z" transform="translate(-20148.502 -24343.994)" fill="#ff4a17"/>
  </g>
</svg>
