<?xml version="1.0" encoding="utf-8"?>
<!-- Generator: Adobe Illustrator 26.0.3, SVG Export Plug-In . SVG Version: 6.00 Build 0)  -->
<svg version="1.1" id="Layer_1" xmlns="http://www.w3.org/2000/svg" xmlns:xlink="http://www.w3.org/1999/xlink" x="0px" y="0px"
	 viewBox="0 0 21.2 17" style="enable-background:new 0 0 21.2 17;" xml:space="preserve">
<style type="text/css">
	.st0{fill:#788090;}
</style>
<path id="Path_602" class="st0" d="M20.3,12.4c0.1-0.5,0.1-0.9,0-1.4l0.9-0.5c0.1-0.1,0.1-0.2,0.1-0.3c-0.2-0.7-0.6-1.4-1.1-1.9
	c-0.1-0.1-0.2-0.1-0.3,0L19,8.7c-0.4-0.3-0.8-0.5-1.2-0.7v-1c0-0.1-0.1-0.2-0.2-0.2c-0.7-0.2-1.5-0.2-2.2,0c-0.1,0-0.2,0.1-0.2,0.2
	v1c-0.4,0.2-0.9,0.4-1.2,0.7l-0.9-0.5c-0.1-0.1-0.2,0-0.3,0c-0.5,0.5-0.9,1.2-1.1,1.9c0,0.1,0,0.2,0.1,0.3l0.9,0.5
	c-0.1,0.5-0.1,0.9,0,1.4l-0.9,0.5c-0.1,0.1-0.1,0.2-0.1,0.3c0.2,0.7,0.6,1.4,1.1,1.9c0.1,0.1,0.2,0.1,0.3,0l0.9-0.5
	c0.4,0.3,0.8,0.5,1.2,0.7v1c0,0.1,0.1,0.2,0.2,0.2c0.7,0.2,1.5,0.2,2.2,0c0.1,0,0.2-0.1,0.2-0.2v-1c0.4-0.2,0.9-0.4,1.2-0.7l0.9,0.5
	c0.1,0.1,0.2,0,0.3,0c0.5-0.5,0.9-1.2,1.1-1.9c0-0.1,0-0.2-0.1-0.3L20.3,12.4z M16.5,13.3c-0.9,0-1.6-0.7-1.6-1.6
	c0-0.9,0.7-1.6,1.6-1.6c0.9,0,1.6,0.7,1.6,1.6C18.1,12.6,17.4,13.3,16.5,13.3C16.5,13.3,16.5,13.3,16.5,13.3L16.5,13.3z M7.4,8.5
	c2.3,0,4.2-1.9,4.2-4.2S9.8,0,7.4,0l0,0C5.1,0,3.2,1.9,3.2,4.2l0,0C3.2,6.6,5.1,8.5,7.4,8.5C7.4,8.5,7.4,8.5,7.4,8.5L7.4,8.5z
	 M14.1,16c-0.1,0-0.2-0.1-0.2-0.1L13.6,16c-0.2,0.1-0.4,0.2-0.7,0.2c-0.4,0-0.7-0.2-1-0.4c-0.6-0.7-1.1-1.5-1.3-2.3
	c-0.2-0.6,0.1-1.2,0.6-1.5l0.3-0.2c0-0.1,0-0.2,0-0.3l-0.3-0.2c-0.5-0.3-0.8-0.9-0.6-1.5c0-0.1,0.1-0.2,0.1-0.3c-0.1,0-0.2,0-0.4,0
	H9.9c-0.8,0.3-1.6,0.5-2.4,0.5c-0.8,0-1.7-0.2-2.4-0.5H4.5C2,9.6,0,11.6,0,14v1.4C0,16.3,0.7,17,1.6,17l0,0h11.7
	c0.3,0,0.6-0.1,0.9-0.3c0-0.1-0.1-0.3-0.1-0.4L14.1,16z"/>
</svg>
