<svg xmlns="http://www.w3.org/2000/svg" width="13.5" height="18" viewBox="0 0 13.5 18">
  <path id="Path_608" data-name="Path 608" d="M7.875-10.969V-15.75H.844A.842.842,0,0,0,0-14.906V1.406a.842.842,0,0,0,.844.844H12.656a.842.842,0,0,0,.844-.844V-10.125H8.719A.846.846,0,0,1,7.875-10.969Zm2.25,8.3A.423.423,0,0,1,9.7-2.25H3.8a.423.423,0,0,1-.422-.422v-.281A.423.423,0,0,1,3.8-3.375H9.7a.423.423,0,0,1,.422.422Zm0-2.25A.423.423,0,0,1,9.7-4.5H3.8a.423.423,0,0,1-.422-.422V-5.2A.423.423,0,0,1,3.8-5.625H9.7a.423.423,0,0,1,.422.422Zm0-2.531v.281A.423.423,0,0,1,9.7-6.75H3.8a.423.423,0,0,1-.422-.422v-.281A.423.423,0,0,1,3.8-7.875H9.7A.423.423,0,0,1,10.125-7.453ZM13.5-11.464a.841.841,0,0,0-.246-.594L9.812-15.5a.843.843,0,0,0-.6-.246H9v4.5h4.5Z" transform="translate(0 15.75)" fill="#788090"/>
</svg>
