<svg xmlns="http://www.w3.org/2000/svg" width="21.25" height="14.875" viewBox="0 0 21.25 14.875">
  <path id="Path_606" data-name="Path 606" d="M20.624-13.067a9.833,9.833,0,0,0-3.865-.746c-4.09,0-8.179,2.07-12.269,2.07A10.075,10.075,0,0,1,1.414-12.2a1.135,1.135,0,0,0-.344-.054A1.057,1.057,0,0,0,0-11.2V-.662A1.056,1.056,0,0,0,.626.316a9.827,9.827,0,0,0,3.865.746c4.09,0,8.179-2.07,12.269-2.07a10.074,10.074,0,0,1,3.076.456A1.136,1.136,0,0,0,20.18-.5,1.057,1.057,0,0,0,21.25-1.555V-12.088A1.057,1.057,0,0,0,20.624-13.067ZM1.594-10.485a11.556,11.556,0,0,0,2.082.3A2.127,2.127,0,0,1,1.594-8.477Zm0,9.463V-2.608A2.124,2.124,0,0,1,3.709-.57,8.02,8.02,0,0,1,1.594-1.022Zm9.031-2.165A2.959,2.959,0,0,1,7.969-6.375a2.959,2.959,0,0,1,2.656-3.187,2.959,2.959,0,0,1,2.656,3.188A2.959,2.959,0,0,1,10.625-3.187Zm9.031.922a11.413,11.413,0,0,0-1.8-.28,2.121,2.121,0,0,1,1.8-1.636Zm0-7.84A2.121,2.121,0,0,1,17.8-12.148a7.98,7.98,0,0,1,1.853.42Z" transform="translate(0 13.813)" fill="#788090"/>
</svg>
