<svg xmlns="http://www.w3.org/2000/svg" width="19.125" height="17" viewBox="0 0 19.125 17">
  <path id="Path_607" data-name="Path 607" d="M18.063-13.812H14.344l-1.062-1.062H10.625a1.063,1.063,0,0,0-1.062,1.063V-8.5a1.063,1.063,0,0,0,1.063,1.063h7.438A1.063,1.063,0,0,0,19.125-8.5v-4.25A1.063,1.063,0,0,0,18.063-13.812Zm0,9.563H14.344L13.281-5.312H10.625A1.063,1.063,0,0,0,9.563-4.25V1.063a1.063,1.063,0,0,0,1.063,1.063h7.438a1.063,1.063,0,0,0,1.063-1.062v-4.25A1.063,1.063,0,0,0,18.063-4.25ZM2.125-14.344a.531.531,0,0,0-.531-.531H.531A.531.531,0,0,0,0-14.344V-1.062A1.063,1.063,0,0,0,1.063,0H8.5V-2.125H2.125V-9.562H8.5v-2.125H2.125Z" transform="translate(0 14.875)" fill="#788090"/>
</svg>
