<svg xmlns="http://www.w3.org/2000/svg" width="18" height="15.75" viewBox="0 0 18 15.75">
  <path id="Path_603" data-name="Path 603" d="M16.7-9.992,11.813-6.88v-2.4a.844.844,0,0,0-1.3-.712L5.625-6.88v-6.9a.844.844,0,0,0-.844-.844H.844A.844.844,0,0,0,0-13.781V.281a.844.844,0,0,0,.844.844H17.156A.844.844,0,0,0,18,.281V-9.28A.844.844,0,0,0,16.7-9.992ZM14.2-2.25H12.8a.422.422,0,0,1-.422-.422V-4.078A.422.422,0,0,1,12.8-4.5H14.2a.422.422,0,0,1,.422.422v1.406A.422.422,0,0,1,14.2-2.25Zm-4.5,0H8.3a.422.422,0,0,1-.422-.422V-4.078A.422.422,0,0,1,8.3-4.5H9.7a.422.422,0,0,1,.422.422v1.406A.422.422,0,0,1,9.7-2.25Zm-4.5,0H3.8a.422.422,0,0,1-.422-.422V-4.078A.422.422,0,0,1,3.8-4.5H5.2a.422.422,0,0,1,.422.422v1.406A.422.422,0,0,1,5.2-2.25Z" transform="translate(0 14.625)" fill="#788090"/>
</svg>
