<svg xmlns="http://www.w3.org/2000/svg" width="17.62" height="18.406" viewBox="0 0 17.62 18.406">
  <path id="Path_609" data-name="Path 609" d="M18.087-4.91l-1.581-.913a7.148,7.148,0,0,0,0-2.605l1.581-.913a.449.449,0,0,0,.2-.52,9.243,9.243,0,0,0-2.03-3.511.446.446,0,0,0-.549-.085l-1.581.913a7,7,0,0,0-2.256-1.3v-1.822a.445.445,0,0,0-.349-.434,9.329,9.329,0,0,0-4.052,0,.445.445,0,0,0-.349.434v1.826a7.225,7.225,0,0,0-2.256,1.3l-1.577-.913a.441.441,0,0,0-.549.085A9.187,9.187,0,0,0,.713-9.856a.444.444,0,0,0,.2.52L2.5-8.424a7.148,7.148,0,0,0,0,2.605L.917-4.906a.448.448,0,0,0-.2.52A9.242,9.242,0,0,0,2.742-.876a.447.447,0,0,0,.549.085L4.872-1.7A7,7,0,0,0,7.129-.4V1.425a.445.445,0,0,0,.349.434,9.329,9.329,0,0,0,4.052,0,.445.445,0,0,0,.349-.434V-.4a7.224,7.224,0,0,0,2.256-1.3l1.581.913a.441.441,0,0,0,.549-.085,9.187,9.187,0,0,0,2.03-3.511A.458.458,0,0,0,18.087-4.91ZM9.5-4.156A2.973,2.973,0,0,1,6.531-7.125,2.973,2.973,0,0,1,9.5-10.094a2.973,2.973,0,0,1,2.969,2.969A2.973,2.973,0,0,1,9.5-4.156Z" transform="translate(-0.692 16.324)" fill="#788090"/>
</svg>
