<svg xmlns="http://www.w3.org/2000/svg" width="21.375" height="19.002" viewBox="0 0 21.375 19.002">
  <path id="Path_610" data-name="Path 610" d="M15.438-8.312V-14.25a2.377,2.377,0,0,0-2.375-2.375H2.375A2.377,2.377,0,0,0,0-14.25v5.938A2.377,2.377,0,0,0,2.375-5.937v2.011a.36.36,0,0,0,.575.289l3.073-2.3h7.04A2.372,2.372,0,0,0,15.438-8.312ZM19-10.687H16.625v2.375A3.568,3.568,0,0,1,13.063-4.75H7.125v2.375A2.377,2.377,0,0,0,9.5,0h4.665l3.073,2.3a.36.36,0,0,0,.575-.289V0H19a2.377,2.377,0,0,0,2.375-2.375V-8.312A2.377,2.377,0,0,0,19-10.687Z" transform="translate(0 16.625)" fill="#788090"/>
</svg>
